<svg
  width="18"
  height="18"
  viewBox="0 0 18 18"
  fill="none"
  xmlns="http://www.w3.org/2000/svg"
>
  <mask
    id="mask0_512_3133"
    style="mask-type: luminance"
    maskUnits="userSpaceOnUse"
    x="0"
    y="0"
    width="18"
    height="18"
  >
    <path
      d="M0.5 17.5V0.5H17.4443V17.5H0.5Z"
      fill="white"
      stroke="white"
    />
  </mask>
  <g mask="url(#mask0_512_3133)">
    <path
      d="M13.519 7.3125C13.519 7.65914 13.2392 7.9375 12.8974 7.9375C12.5557 7.9375 12.2759 7.65914 12.2759 7.3125C12.2759 6.96586 12.5557 6.6875 12.8974 6.6875C13.2392 6.6875 13.519 6.96586 13.519 7.3125Z"
      fill="#FFF4E6"
      stroke="white"
    />
    <path
      d="M16.262 12.9375C16.262 16.3024 16.2558 16.3125 12.8974 16.3125"
      stroke="white"
      stroke-miterlimit="1"
      stroke-linecap="round"
      stroke-linejoin="round"
    />
    <path
      d="M7.28986 16.3125C3.9354 16.3125 3.92531 16.3063 3.92531 12.9375"
      stroke="white"
      stroke-miterlimit="1"
      stroke-linecap="round"
      stroke-linejoin="round"
    />
    <path
      d="M3.45147 14.0377C1.689 13.9342 1.68227 13.4044 1.68227 10.6875"
      stroke="white"
      stroke-miterlimit="1"
      stroke-linecap="round"
      stroke-linejoin="round"
    />
    <path
      d="M3.92531 7.3125C3.92531 3.94763 3.93148 3.9375 7.28986 3.9375"
      stroke="white"
      stroke-miterlimit="1"
      stroke-linecap="round"
      stroke-linejoin="round"
    />
    <path
      d="M1.68227 5.0625C1.68227 1.69763 1.68844 1.6875 5.04683 1.6875"
      stroke="white"
      stroke-miterlimit="1"
      stroke-linecap="round"
      stroke-linejoin="round"
    />
    <path
      d="M12.8974 3.9375C16.2519 3.9375 16.262 3.94369 16.262 7.3125"
      stroke="white"
      stroke-miterlimit="1"
      stroke-linecap="round"
      stroke-linejoin="round"
    />
    <path
      d="M10.6544 1.6875C13.4044 1.6875 13.9068 1.692 13.9982 3.54881"
      stroke="white"
      stroke-miterlimit="1"
      stroke-linecap="round"
      stroke-linejoin="round"
    />
    <path
      d="M16.262 7.3125V12.9375"
      stroke="white"
      stroke-miterlimit="1"
      stroke-linecap="round"
    />
    <path
      d="M3.92531 12.9375V7.3125"
      stroke="white"
      stroke-miterlimit="1"
      stroke-linecap="round"
    />
    <path
      d="M1.68227 10.6875V5.0625"
      stroke="white"
      stroke-miterlimit="1"
      stroke-linecap="round"
    />
    <path
      d="M7.28986 3.9375H12.8974"
      stroke="white"
      stroke-miterlimit="1"
      stroke-linecap="round"
    />
    <path
      d="M5.04683 1.6875H10.6544"
      stroke="white"
      stroke-miterlimit="1"
      stroke-linecap="round"
    />
    <path
      d="M12.8974 16.3125H7.28986"
      stroke="white"
      stroke-miterlimit="1"
      stroke-linecap="round"
    />
    <path
      d="M6.16834 12.375L7.85062 10.6875L10.0937 12.9375"
      stroke="white"
      stroke-miterlimit="1"
      stroke-linecap="round"
      stroke-linejoin="round"
    />
    <path
      d="M9.52056 12.3626L11.2152 10.6875L14.019 13.5"
      stroke="white"
      stroke-miterlimit="1"
      stroke-linecap="round"
      stroke-linejoin="round"
    />
  </g>
</svg>