<svg
  width="12"
  height="18"
  viewBox="0 0 12 18"
  fill="none"
  xmlns="http://www.w3.org/2000/svg"
>
  <path
    d="M5.93897 0C2.66464 0 0 2.69294 0 5.99518C0 7.19275 0.350704 8.29831 0.946496 9.23381L3.71625 13.599C3.56212 13.6629 3.41482 13.7268 3.27459 13.8048C2.55928 14.1876 1.97738 14.7969 1.97738 15.5975C1.97738 16.4055 2.55928 17.0148 3.27459 17.3975C3.99671 17.7874 4.92224 18 5.93897 18C6.94889 18 7.87442 17.7874 8.5968 17.3975C9.31185 17.0148 9.894 16.4055 9.894 15.5975C9.894 14.7969 9.31185 14.1876 8.5968 13.8048C8.45631 13.7268 8.31633 13.6629 8.16195 13.599L10.9317 9.23381C11.5275 8.29831 11.8711 7.19275 11.8711 5.99518C11.8709 2.69294 9.20648 0 5.93897 0ZM5.93897 1.19757C8.5685 1.19757 10.6861 3.33773 10.6861 5.99518C10.6861 6.95172 10.4127 7.84463 9.93569 8.58877L5.94605 14.8957L1.94226 8.58877C1.46522 7.84463 1.18502 6.95172 1.18502 5.99518C1.18502 3.33773 3.30945 1.19757 5.93897 1.19757ZM5.93897 3.4016C4.52277 3.4016 3.36555 4.57103 3.36555 5.99518C3.36555 7.42669 4.52251 8.59587 5.93897 8.59587C7.34836 8.59587 8.51266 7.42669 8.51266 5.99518C8.51241 4.57078 7.34836 3.4016 5.93897 3.4016ZM5.93897 4.59916C6.71037 4.59916 7.32057 5.21556 7.32057 5.99518C7.32057 6.77481 6.71037 7.3983 5.93897 7.3983C5.16758 7.3983 4.55081 6.77481 4.55081 5.99518C4.55081 5.21556 5.16758 4.59916 5.93897 4.59916ZM4.37521 14.6407L5.44122 16.3201C5.54633 16.4833 5.74265 16.5895 5.93897 16.5895C6.1353 16.5895 6.33187 16.4833 6.43699 16.3201L7.50299 14.6407C7.69906 14.7046 7.88149 14.7753 8.04295 14.8605C8.5407 15.1225 8.70898 15.4133 8.70898 15.5973C8.70898 15.7886 8.5407 16.0791 8.04295 16.3414C7.53811 16.6108 6.78087 16.8019 5.93923 16.8019C5.09102 16.8019 4.33377 16.6106 3.83576 16.3414C3.338 16.0793 3.16973 15.7886 3.16973 15.5973C3.16973 15.413 3.338 15.1225 3.83576 14.8605C3.98964 14.7753 4.17206 14.7046 4.37521 14.6407Z"
    fill="white"
  />
</svg>